<svg xmlns="http://www.w3.org/2000/svg" version="1.1" xmlns:xlink="http://www.w3.org/1999/xlink" xmlns:svgjs="http://svgjs.com/svgjs" width="1900" height="1200" preserveAspectRatio="none" viewBox="0 0 1900 1200"><g mask="url(&quot;#SvgjsMask1048&quot;)" fill="none"><rect width="1900" height="1200" x="0" y="0" fill="url(#SvgjsLinearGradient1049)"></rect><path d="M1900 0L1674.08 0L1900 327.76z" fill="rgba(255, 255, 255, .1)"></path><path d="M1674.08 0L1900 327.76L1900 542.16L1047.25 0z" fill="rgba(255, 255, 255, .075)"></path><path d="M1047.25 0L1900 542.16L1900 553.37L730.79 0z" fill="rgba(255, 255, 255, .05)"></path><path d="M730.79 0L1900 553.37L1900 817.22L460.76 0z" fill="rgba(255, 255, 255, .025)"></path><path d="M0 1200L221.1 1200L0 1168.01z" fill="rgba(0, 0, 0, .1)"></path><path d="M0 1168.01L221.1 1200L273.3 1200L0 695.89z" fill="rgba(0, 0, 0, .075)"></path><path d="M0 695.89L273.3 1200L820.4000000000001 1200L0 418.11z" fill="rgba(0, 0, 0, .05)"></path><path d="M0 418.11L820.4000000000001 1200L1008.1600000000001 1200L0 196.87z" fill="rgba(0, 0, 0, .025)"></path></g><defs><mask id="SvgjsMask1048"><rect width="1900" height="1200" fill="#ffffff"></rect></mask><linearGradient x1="9.21%" y1="-14.58%" x2="90.79%" y2="114.58%" gradientUnits="userSpaceOnUse" id="SvgjsLinearGradient1049"><stop stop-color="#0e2a47" offset="0"></stop><stop stop-color="#00459e" offset="1"></stop></linearGradient></defs></svg>